<svg width="107" height="107" viewBox="0 0 107 107" fill="none" xmlns="http://www.w3.org/2000/svg">
<path d="M45.995 11.7665L11.7763 45.9852C7.39067 50.3708 7.39067 57.4813 11.7763 61.8669L45.995 96.0856C50.3806 100.471 57.491 100.471 61.8766 96.0856L96.0954 61.8669C100.481 57.4813 100.481 50.3708 96.0954 45.9852L61.8766 11.7665C57.491 7.38087 50.3806 7.38088 45.995 11.7665Z" fill="white" stroke="url(#paint0_angular_383_13393)" stroke-width="6.40282"/>
<path d="M37.697 61.1242C36.8491 61.1242 36.1537 60.9917 35.6105 60.7268C35.0674 60.4486 34.6633 60.0843 34.3984 59.6339C34.1335 59.1835 34.001 58.6867 34.001 58.1436C34.001 57.2295 34.3587 56.4877 35.074 55.918C35.7894 55.3484 36.8624 55.0636 38.2931 55.0636H40.7968V54.8251C40.7968 54.1495 40.6047 53.6528 40.2206 53.3348C39.8364 53.0169 39.3595 52.8579 38.7899 52.8579C38.2732 52.8579 37.8228 52.9838 37.4386 53.2355C37.0545 53.4739 36.816 53.8316 36.7233 54.3085H34.2394C34.3057 53.5931 34.5441 52.9705 34.9548 52.4406C35.3787 51.9107 35.9218 51.5067 36.5842 51.2285C37.2466 50.9371 37.9884 50.7914 38.8097 50.7914C40.2139 50.7914 41.3201 51.1424 42.1282 51.8445C42.9362 52.5466 43.3403 53.5402 43.3403 54.8251V60.8857H41.1744L40.9359 59.2961C40.6445 59.826 40.2338 60.2631 39.7039 60.6076C39.1873 60.952 38.5183 61.1242 37.697 61.1242ZM38.2732 59.1371C39.0018 59.1371 39.5648 58.8987 39.9622 58.4218C40.3729 57.9449 40.6312 57.3554 40.7372 56.6533H38.5713C37.8957 56.6533 37.4121 56.7791 37.1207 57.0308C36.8293 57.2693 36.6835 57.5673 36.6835 57.925C36.6835 58.3092 36.8293 58.6072 37.1207 58.8192C37.4121 59.0311 37.7963 59.1371 38.2732 59.1371ZM50.5961 61.1242C49.5893 61.1242 48.7017 60.9056 47.9334 60.4685C47.1651 60.0313 46.5557 59.4219 46.1053 58.6403C45.6681 57.8588 45.4495 56.9646 45.4495 55.9578C45.4495 54.951 45.6681 54.0568 46.1053 53.2752C46.5557 52.4936 47.1651 51.8843 47.9334 51.4471C48.7017 51.0099 49.5893 50.7914 50.5961 50.7914C51.8546 50.7914 52.9143 51.1225 53.7754 51.7849C54.6365 52.434 55.1862 53.3348 55.4247 54.4873H52.7421C52.6097 54.0104 52.3447 53.6395 51.9473 53.3746C51.5631 53.0964 51.1061 52.9573 50.5762 52.9573C49.8741 52.9573 49.278 53.2222 48.7878 53.7521C48.2977 54.282 48.0526 55.0172 48.0526 55.9578C48.0526 56.8983 48.2977 57.6335 48.7878 58.1634C49.278 58.6933 49.8741 58.9583 50.5762 58.9583C51.1061 58.9583 51.5631 58.8258 51.9473 58.5609C52.3447 58.2959 52.6097 57.9184 52.7421 57.4282H55.4247C55.1862 58.541 54.6365 59.4352 53.7754 60.1108C52.9143 60.7864 51.8546 61.1242 50.5961 61.1242ZM57.6822 60.8857V51.0298H59.9276L60.1462 52.3612C60.4641 51.8843 60.8814 51.5067 61.3981 51.2285C61.9279 50.9371 62.5373 50.7914 63.2262 50.7914C64.7496 50.7914 65.8293 51.3809 66.4651 52.5599C66.8228 52.0167 67.2997 51.5862 67.8958 51.2683C68.5052 50.9503 69.1676 50.7914 69.8829 50.7914C71.1679 50.7914 72.1548 51.1755 72.8437 51.9439C73.5325 52.7122 73.8769 53.8382 73.8769 55.3219V60.8857H71.3335V55.5604C71.3335 54.7125 71.1679 54.0634 70.8367 53.613C70.5188 53.1626 70.022 52.9374 69.3464 52.9374C68.6575 52.9374 68.1011 53.1891 67.6772 53.6925C67.2666 54.1959 67.0612 54.898 67.0612 55.7988V60.8857H64.5178V55.5604C64.5178 54.7125 64.3522 54.0634 64.021 53.613C63.6898 53.1626 63.1798 52.9374 62.491 52.9374C61.8153 52.9374 61.2656 53.1891 60.8417 53.6925C60.431 54.1959 60.2257 54.898 60.2257 55.7988V60.8857H57.6822Z" fill="#333333"/>
<defs>
<radialGradient id="paint0_angular_383_13393" cx="0" cy="0" r="1" gradientUnits="userSpaceOnUse" gradientTransform="translate(53.9358 53.926) rotate(45) scale(32.2249)">
<stop stop-color="#FF6D6D"/>
<stop offset="0.171875" stop-color="#FDA44E"/>
<stop offset="0.348958" stop-color="#FFDC24"/>
<stop offset="0.526042" stop-color="#38CF6B"/>
<stop offset="0.713542" stop-color="#62B0FF"/>
<stop offset="0.875" stop-color="#816DFF"/>
<stop offset="1" stop-color="#FF6D6D"/>
</radialGradient>
</defs>
</svg>
