<svg width="419" height="572" viewBox="0 0 419 572" fill="none" xmlns="http://www.w3.org/2000/svg">
<g filter="url(#filter0_d_494_1730)">
<g filter="url(#filter1_di_494_1730)">
<path d="M105.496 467.903L189.192 419.581C199.735 413.493 216.829 413.493 227.373 419.581L311.069 467.903C321.612 473.99 321.612 483.859 311.069 489.946L227.373 538.268C216.83 544.356 199.735 544.356 189.192 538.268L105.496 489.946C94.9524 483.859 94.9524 473.99 105.496 467.903Z" stroke="#4FB099" stroke-width="12.0195" shape-rendering="crispEdges"/>
</g>
<g filter="url(#filter2_i_494_1730)">
<path d="M105.496 449.89L189.192 401.568C199.735 395.481 216.829 395.481 227.373 401.568L311.069 449.89C321.613 455.977 321.613 465.847 311.069 471.934L227.373 520.256C216.83 526.343 199.735 526.343 189.192 520.256L105.496 471.934C94.9525 465.847 94.9525 455.977 105.496 449.89Z" stroke="#4FB099" stroke-width="12.0195"/>
</g>
<g filter="url(#filter3_i_494_1730)">
<path d="M105.495 431.826L189.192 383.504C199.735 377.417 216.829 377.417 227.372 383.504L311.069 431.826C321.612 437.913 321.612 447.783 311.069 453.87L227.372 502.192C216.829 508.279 199.735 508.279 189.192 502.192L105.495 453.87C94.9521 447.783 94.9521 437.913 105.495 431.826Z" stroke="#4FB099" stroke-width="12.0195"/>
</g>
<g filter="url(#filter4_i_494_1730)">
<path d="M105.495 413.814L189.192 365.492C199.735 359.405 216.829 359.405 227.372 365.492L311.069 413.814C321.612 419.901 321.612 429.77 311.069 435.857L227.373 484.18C216.829 490.267 199.735 490.267 189.192 484.18L105.495 435.857C94.9522 429.77 94.9522 419.901 105.495 413.814Z" stroke="#4FB099" stroke-width="12.0195"/>
</g>
<g filter="url(#filter5_i_494_1730)">
<path d="M105.495 395.801L189.192 347.479C199.735 341.392 216.829 341.392 227.372 347.479L311.069 395.801C321.612 401.888 321.612 411.758 311.069 417.845L227.373 466.167C216.829 472.254 199.735 472.254 189.192 466.167L105.495 417.845C94.9522 411.758 94.9522 401.888 105.495 395.801Z" stroke="#4FB099" stroke-width="12.0195"/>
</g>
</g>
<g style="mix-blend-mode:luminosity" filter="url(#filter6_ddf_494_1730)">
<path d="M208.282 444.047C177.004 444.047 151.76 424.813 151.76 393.535C151.138 359.108 142.091 339.886 115.753 315.949C84.3859 289.565 64.4522 250.025 64.4522 205.83C64.4522 126.395 128.847 62 208.282 62C287.717 62 352.111 126.395 352.111 205.83C352.111 250.025 332.178 289.565 300.81 315.949C274.473 339.886 264.527 359.108 263.904 393.535C263.904 424.813 239.559 444.047 208.282 444.047Z" fill="url(#paint0_angular_494_1730)" fill-opacity="0.5" shape-rendering="crispEdges"/>
<path d="M300.81 315.949C274.473 339.886 264.527 359.108 263.904 393.535C263.904 424.813 239.559 444.047 208.282 444.047C177.004 444.047 151.76 424.813 151.76 393.535C151.138 359.108 142.091 339.886 115.753 315.949C84.3859 289.565 64.4522 250.025 64.4522 205.83C64.4522 126.395 128.847 62 208.282 62C287.717 62 352.111 126.395 352.111 205.83M300.81 315.949C300.465 316.239 300.119 316.528 299.771 316.815C331.736 290.435 352.111 250.512 352.111 205.83M300.81 315.949C332.178 289.565 352.111 250.025 352.111 205.83" stroke="#E6FFC6" stroke-width="4.48345" shape-rendering="crispEdges"/>
</g>
<g filter="url(#filter7_f_494_1730)">
<path d="M209.631 414.383C183.729 414.383 162.824 398.045 162.824 371.477C162.308 342.235 154.816 325.907 133.005 305.575C107.029 283.164 90.5218 249.578 90.5218 212.038C90.5218 144.565 143.849 89.8674 209.631 89.8674C275.413 89.8673 328.739 144.565 328.739 212.038C328.739 249.578 312.232 283.164 286.256 305.575C264.445 325.907 256.209 342.235 255.693 371.477C255.693 398.045 235.532 414.383 209.631 414.383Z" fill="url(#paint1_angular_494_1730)"/>
</g>
<ellipse cx="153.769" cy="252.125" rx="78.8953" ry="114.019" transform="rotate(-35.2911 153.769 252.125)" fill="url(#paint2_radial_494_1730)" fill-opacity="0.75"/>
<g filter="url(#filter8_f_494_1730)">
<ellipse cx="53.0371" cy="40.452" rx="53.0371" ry="40.452" transform="matrix(-1 8.74228e-08 8.74228e-08 1 261.319 363.143)" fill="#FFE486"/>
</g>
<g style="mix-blend-mode:screen">
<ellipse cx="104.638" cy="107.32" rx="104.638" ry="107.32" transform="matrix(-0.866025 -0.5 -0.5 0.866025 353.01 177.425)" fill="url(#paint3_radial_494_1730)" fill-opacity="0.75"/>
</g>
<g style="mix-blend-mode:color-dodge" filter="url(#filter9_dd_494_1730)">
<path d="M232.405 402.809C231.829 352.821 231.716 280.719 231.829 274.46C232.295 248.631 231.715 223.528 240.181 195.371C241.387 191.36 247.041 170.419 251.844 171.103C262.669 172.645 253.764 217.634 244.86 227.334C232.857 240.41 229.136 227.801 227.941 214.631C227.325 207.845 227.221 200.763 227.221 193.583C227.221 188.25 227.058 198.483 226.933 199.593C225.35 213.599 221.079 227.899 213.613 240.336C201.852 259.929 194.409 192.268 203.893 194.757C211.958 196.873 210.678 241.683 200.077 250.771C191.944 257.744 190.212 250.011 188.054 242.194C186.32 235.915 181.335 222.994 183.23 213.942C185.123 204.898 184.626 229.854 184.382 238.369C184.199 244.75 183.013 247.716 179.801 253.022M191.794 426.256C191.794 380.066 191.982 326.835 188.054 293.146C185.627 272.331 183.858 266.344 179.801 253.022M179.801 253.022C179.652 253.267 179.499 253.518 179.342 253.774C165.153 276.859 155.225 223.287 163.862 221.597C170.67 220.265 174.476 235.153 176.39 241.673C177.691 246.103 178.814 249.78 179.801 253.022Z" stroke="url(#paint4_angular_494_1730)" stroke-width="4.48345" stroke-linecap="round" shape-rendering="crispEdges"/>
</g>
<g style="mix-blend-mode:hard-light" filter="url(#filter10_f_494_1730)">
<path d="M159.284 251.354L274.191 365.166L234.542 408.535C215.741 429.1 174.777 420.293 143.046 388.864C111.315 357.436 100.834 315.287 119.635 294.722L159.284 251.354Z" fill="url(#paint5_linear_494_1730)"/>
<path d="M159.284 251.354L274.191 365.166L234.542 408.535C215.741 429.1 174.777 420.293 143.046 388.864C111.315 357.436 100.834 315.287 119.635 294.722L159.284 251.354Z" fill="url(#paint6_radial_494_1730)" fill-opacity="0.75"/>
</g>
<g opacity="0.75" filter="url(#filter11_f_494_1730)">
<ellipse cx="292.149" cy="161.618" rx="28.3164" ry="64.4651" transform="rotate(-35.056 292.149 161.618)" fill="#E6FFC6"/>
</g>
<defs>
<filter id="filter0_d_494_1730" x="81.2607" y="329.697" width="254.043" height="226.353" filterUnits="userSpaceOnUse" color-interpolation-filters="sRGB">
<feFlood flood-opacity="0" result="BackgroundImageFix"/>
<feColorMatrix in="SourceAlpha" type="matrix" values="0 0 0 0 0 0 0 0 0 0 0 0 0 0 0 0 0 0 127 0" result="hardAlpha"/>
<feOffset/>
<feGaussianBlur stdDeviation="4.48345"/>
<feComposite in2="hardAlpha" operator="out"/>
<feColorMatrix type="matrix" values="0 0 0 0 1 0 0 0 0 1 0 0 0 0 1 0 0 0 1 0"/>
<feBlend mode="normal" in2="BackgroundImageFix" result="effect1_dropShadow_494_1730"/>
<feBlend mode="normal" in="SourceGraphic" in2="effect1_dropShadow_494_1730" result="shape"/>
</filter>
<filter id="filter1_di_494_1730" x="72.2941" y="398.842" width="271.977" height="172.185" filterUnits="userSpaceOnUse" color-interpolation-filters="sRGB">
<feFlood flood-opacity="0" result="BackgroundImageFix"/>
<feColorMatrix in="SourceAlpha" type="matrix" values="0 0 0 0 0 0 0 0 0 0 0 0 0 0 0 0 0 0 127 0" result="hardAlpha"/>
<feOffset dy="6.00974"/>
<feGaussianBlur stdDeviation="8.96691"/>
<feComposite in2="hardAlpha" operator="out"/>
<feColorMatrix type="matrix" values="0 0 0 0 0.129412 0 0 0 0 0.376471 0 0 0 0 0.513726 0 0 0 1 0"/>
<feBlend mode="normal" in2="BackgroundImageFix" result="effect1_dropShadow_494_1730"/>
<feBlend mode="normal" in="SourceGraphic" in2="effect1_dropShadow_494_1730" result="shape"/>
<feColorMatrix in="SourceAlpha" type="matrix" values="0 0 0 0 0 0 0 0 0 0 0 0 0 0 0 0 0 0 127 0" result="hardAlpha"/>
<feOffset dy="-3.58676"/>
<feGaussianBlur stdDeviation="1.79338"/>
<feComposite in2="hardAlpha" operator="arithmetic" k2="-1" k3="1"/>
<feColorMatrix type="matrix" values="0 0 0 0 0.129412 0 0 0 0 0.376471 0 0 0 0 0.513726 0 0 0 1 0"/>
<feBlend mode="normal" in2="shape" result="effect2_innerShadow_494_1730"/>
</filter>
<filter id="filter2_i_494_1730" x="90.2279" y="389.166" width="236.109" height="139.904" filterUnits="userSpaceOnUse" color-interpolation-filters="sRGB">
<feFlood flood-opacity="0" result="BackgroundImageFix"/>
<feBlend mode="normal" in="SourceGraphic" in2="BackgroundImageFix" result="shape"/>
<feColorMatrix in="SourceAlpha" type="matrix" values="0 0 0 0 0 0 0 0 0 0 0 0 0 0 0 0 0 0 127 0" result="hardAlpha"/>
<feOffset dy="-3.58676"/>
<feGaussianBlur stdDeviation="1.79338"/>
<feComposite in2="hardAlpha" operator="arithmetic" k2="-1" k3="1"/>
<feColorMatrix type="matrix" values="0 0 0 0 0.129412 0 0 0 0 0.376471 0 0 0 0 0.513726 0 0 0 1 0"/>
<feBlend mode="normal" in2="shape" result="effect1_innerShadow_494_1730"/>
</filter>
<filter id="filter3_i_494_1730" x="90.2276" y="371.102" width="236.109" height="139.904" filterUnits="userSpaceOnUse" color-interpolation-filters="sRGB">
<feFlood flood-opacity="0" result="BackgroundImageFix"/>
<feBlend mode="normal" in="SourceGraphic" in2="BackgroundImageFix" result="shape"/>
<feColorMatrix in="SourceAlpha" type="matrix" values="0 0 0 0 0 0 0 0 0 0 0 0 0 0 0 0 0 0 127 0" result="hardAlpha"/>
<feOffset dy="-3.58676"/>
<feGaussianBlur stdDeviation="1.79338"/>
<feComposite in2="hardAlpha" operator="arithmetic" k2="-1" k3="1"/>
<feColorMatrix type="matrix" values="0 0 0 0 0.129412 0 0 0 0 0.376471 0 0 0 0 0.513726 0 0 0 1 0"/>
<feBlend mode="normal" in2="shape" result="effect1_innerShadow_494_1730"/>
</filter>
<filter id="filter4_i_494_1730" x="90.2276" y="353.09" width="236.109" height="139.904" filterUnits="userSpaceOnUse" color-interpolation-filters="sRGB">
<feFlood flood-opacity="0" result="BackgroundImageFix"/>
<feBlend mode="normal" in="SourceGraphic" in2="BackgroundImageFix" result="shape"/>
<feColorMatrix in="SourceAlpha" type="matrix" values="0 0 0 0 0 0 0 0 0 0 0 0 0 0 0 0 0 0 127 0" result="hardAlpha"/>
<feOffset dy="-3.58676"/>
<feGaussianBlur stdDeviation="1.79338"/>
<feComposite in2="hardAlpha" operator="arithmetic" k2="-1" k3="1"/>
<feColorMatrix type="matrix" values="0 0 0 0 0.129412 0 0 0 0 0.376471 0 0 0 0 0.513726 0 0 0 1 0"/>
<feBlend mode="normal" in2="shape" result="effect1_innerShadow_494_1730"/>
</filter>
<filter id="filter5_i_494_1730" x="90.2276" y="335.077" width="236.109" height="139.904" filterUnits="userSpaceOnUse" color-interpolation-filters="sRGB">
<feFlood flood-opacity="0" result="BackgroundImageFix"/>
<feBlend mode="normal" in="SourceGraphic" in2="BackgroundImageFix" result="shape"/>
<feColorMatrix in="SourceAlpha" type="matrix" values="0 0 0 0 0 0 0 0 0 0 0 0 0 0 0 0 0 0 127 0" result="hardAlpha"/>
<feOffset dy="-3.58676"/>
<feGaussianBlur stdDeviation="1.79338"/>
<feComposite in2="hardAlpha" operator="arithmetic" k2="-1" k3="1"/>
<feColorMatrix type="matrix" values="0 0 0 0 0.129412 0 0 0 0 0.376471 0 0 0 0 0.513726 0 0 0 1 0"/>
<feBlend mode="normal" in2="shape" result="effect1_innerShadow_494_1730"/>
</filter>
<filter id="filter6_ddf_494_1730" x="17.3759" y="14.9238" width="381.812" height="476.2" filterUnits="userSpaceOnUse" color-interpolation-filters="sRGB">
<feFlood flood-opacity="0" result="BackgroundImageFix"/>
<feColorMatrix in="SourceAlpha" type="matrix" values="0 0 0 0 0 0 0 0 0 0 0 0 0 0 0 0 0 0 127 0" result="hardAlpha"/>
<feOffset/>
<feGaussianBlur stdDeviation="22.4173"/>
<feComposite in2="hardAlpha" operator="out"/>
<feColorMatrix type="matrix" values="0 0 0 0 1 0 0 0 0 1 0 0 0 0 1 0 0 0 1 0"/>
<feBlend mode="normal" in2="BackgroundImageFix" result="effect1_dropShadow_494_1730"/>
<feColorMatrix in="SourceAlpha" type="matrix" values="0 0 0 0 0 0 0 0 0 0 0 0 0 0 0 0 0 0 127 0" result="hardAlpha"/>
<feOffset/>
<feGaussianBlur stdDeviation="0.896691"/>
<feComposite in2="hardAlpha" operator="out"/>
<feColorMatrix type="matrix" values="0 0 0 0 1 0 0 0 0 1 0 0 0 0 1 0 0 0 1 0"/>
<feBlend mode="normal" in2="effect1_dropShadow_494_1730" result="effect2_dropShadow_494_1730"/>
<feBlend mode="normal" in="SourceGraphic" in2="effect2_dropShadow_494_1730" result="shape"/>
<feGaussianBlur stdDeviation="1.79338" result="effect3_foregroundBlur_494_1730"/>
</filter>
<filter id="filter7_f_494_1730" x="0.852715" y="0.19825" width="417.556" height="503.854" filterUnits="userSpaceOnUse" color-interpolation-filters="sRGB">
<feFlood flood-opacity="0" result="BackgroundImageFix"/>
<feBlend mode="normal" in="SourceGraphic" in2="BackgroundImageFix" result="shape"/>
<feGaussianBlur stdDeviation="44.8345" result="effect1_foregroundBlur_494_1730"/>
</filter>
<filter id="filter8_f_494_1730" x="83.5099" y="291.407" width="249.545" height="224.375" filterUnits="userSpaceOnUse" color-interpolation-filters="sRGB">
<feFlood flood-opacity="0" result="BackgroundImageFix"/>
<feBlend mode="normal" in="SourceGraphic" in2="BackgroundImageFix" result="shape"/>
<feGaussianBlur stdDeviation="35.8676" result="effect1_foregroundBlur_494_1730"/>
</filter>
<filter id="filter9_dd_494_1730" x="113.863" y="123.746" width="189.738" height="349.852" filterUnits="userSpaceOnUse" color-interpolation-filters="sRGB">
<feFlood flood-opacity="0" result="BackgroundImageFix"/>
<feColorMatrix in="SourceAlpha" type="matrix" values="0 0 0 0 0 0 0 0 0 0 0 0 0 0 0 0 0 0 127 0" result="hardAlpha"/>
<feOffset/>
<feGaussianBlur stdDeviation="4.48345"/>
<feComposite in2="hardAlpha" operator="out"/>
<feColorMatrix type="matrix" values="0 0 0 0 1 0 0 0 0 1 0 0 0 0 1 0 0 0 1 0"/>
<feBlend mode="normal" in2="BackgroundImageFix" result="effect1_dropShadow_494_1730"/>
<feColorMatrix in="SourceAlpha" type="matrix" values="0 0 0 0 0 0 0 0 0 0 0 0 0 0 0 0 0 0 127 0" result="hardAlpha"/>
<feOffset/>
<feGaussianBlur stdDeviation="22.4173"/>
<feComposite in2="hardAlpha" operator="out"/>
<feColorMatrix type="matrix" values="0 0 0 0 1 0 0 0 0 1 0 0 0 0 1 0 0 0 1 0"/>
<feBlend mode="normal" in2="effect1_dropShadow_494_1730" result="effect2_dropShadow_494_1730"/>
<feBlend mode="normal" in="SourceGraphic" in2="effect2_dropShadow_494_1730" result="shape"/>
</filter>
<filter id="filter10_f_494_1730" x="56.4949" y="197.552" width="271.498" height="275.892" filterUnits="userSpaceOnUse" color-interpolation-filters="sRGB">
<feFlood flood-opacity="0" result="BackgroundImageFix"/>
<feBlend mode="normal" in="SourceGraphic" in2="BackgroundImageFix" result="shape"/>
<feGaussianBlur stdDeviation="26.9007" result="effect1_foregroundBlur_494_1730"/>
</filter>
<filter id="filter11_f_494_1730" x="212.4" y="70.3246" width="159.497" height="182.586" filterUnits="userSpaceOnUse" color-interpolation-filters="sRGB">
<feFlood flood-opacity="0" result="BackgroundImageFix"/>
<feBlend mode="normal" in="SourceGraphic" in2="BackgroundImageFix" result="shape"/>
<feGaussianBlur stdDeviation="18.0292" result="effect1_foregroundBlur_494_1730"/>
</filter>
<radialGradient id="paint0_angular_494_1730" cx="0" cy="0" r="1" gradientUnits="userSpaceOnUse" gradientTransform="translate(123.332 158.636) rotate(-42.2943) scale(336.63 253.463)">
<stop offset="0.247564" stop-color="#E6FFC6"/>
<stop offset="0.9375" stop-color="#52FF00" stop-opacity="0.5"/>
</radialGradient>
<radialGradient id="paint1_angular_494_1730" cx="0" cy="0" r="1" gradientUnits="userSpaceOnUse" gradientTransform="translate(139.282 171.951) rotate(-43.0189) scale(282.039 212.8)">
<stop offset="0.247564" stop-color="#E6FFC6"/>
<stop offset="0.994792" stop-color="#4FB199" stop-opacity="0.8"/>
</radialGradient>
<radialGradient id="paint2_radial_494_1730" cx="0" cy="0" r="1" gradientUnits="userSpaceOnUse" gradientTransform="translate(153.769 252.125) rotate(90) scale(114.019 78.8953)">
<stop stop-color="#E6FFC6"/>
<stop offset="1" stop-color="#F3FF6D" stop-opacity="0.02"/>
</radialGradient>
<radialGradient id="paint3_radial_494_1730" cx="0" cy="0" r="1" gradientUnits="userSpaceOnUse" gradientTransform="translate(111.885 115.673) rotate(90.9254) scale(114.34 111.468)">
<stop stop-color="#E6FFC6"/>
<stop offset="0.451288" stop-color="#4FB099" stop-opacity="0.7"/>
<stop offset="0.874973" stop-color="#216083" stop-opacity="0"/>
</radialGradient>
<radialGradient id="paint4_angular_494_1730" cx="0" cy="0" r="1" gradientUnits="userSpaceOnUse" gradientTransform="translate(208.732 303.912) rotate(90) scale(112.566 48.093)">
<stop offset="0.3125" stop-color="#96FF71" stop-opacity="0.9"/>
<stop offset="0.738877" stop-color="#FFF5CD" stop-opacity="0.9"/>
<stop offset="1" stop-color="#3D96FF" stop-opacity="0.96"/>
</radialGradient>
<linearGradient id="paint5_linear_494_1730" x1="226.724" y1="386.131" x2="117.063" y2="260.261" gradientUnits="userSpaceOnUse">
<stop offset="0.108756" stop-color="#3A97AC"/>
<stop offset="0.270058" stop-color="#B5FF6A"/>
<stop offset="0.725078" stop-color="#F9FAB1"/>
<stop offset="0.870498" stop-color="#91B7DA"/>
</linearGradient>
<radialGradient id="paint6_radial_494_1730" cx="0" cy="0" r="1" gradientUnits="userSpaceOnUse" gradientTransform="translate(109.558 413.938) rotate(-47.796) scale(102.587 132.186)">
<stop stop-color="#B8F26E"/>
<stop offset="1" stop-color="#00FF66" stop-opacity="0.01"/>
</radialGradient>
</defs>
</svg>
