<svg width="289" height="220" viewBox="0 0 289 220" fill="none" xmlns="http://www.w3.org/2000/svg">
<path d="M141.459 108.44L136.419 96.1016L198.112 13.3812L289 89.4979L282.744 100.099L201.24 29.0216L141.459 108.44Z" fill="#FFFDFB"/>
<path d="M141.459 108.44L152.928 176.563L64.4732 219.14L60.3025 194.115L19.3767 193.936L16.1618 161.27L141.459 108.44Z" fill="#8DC6D8"/>
<path d="M117.824 162.139L106.007 167.352L100.794 135.55L112.785 131.206L117.824 162.139Z" fill="#1F2C36"/>
<path d="M68.1227 181.95L54.3939 187.337L51.4396 155.188L64.647 150.495L68.1227 181.95Z" fill="#1F2C36"/>
<path d="M289 168.743L152.928 176.563L141.459 108.44L194.289 38.2321L271.274 100.446L276.314 95.9278L289 168.743Z" fill="#B3D9E6"/>
<path d="M175.694 108.266H161.618L168.916 142.849H183.34L175.694 108.266Z" fill="#1F2C36"/>
<path d="M256.85 104.269H242.774L249.204 139.373H263.28L256.85 104.269Z" fill="#1F2C36"/>
<path d="M198.286 13.7288L136.767 96.4492L0.347565 158.663L55.6103 83.2417L198.286 13.7288Z" fill="#2C343A"/>
<path d="M170.307 8.8629V27.3626L181.776 21.8966L181.95 0L170.307 8.8629Z" fill="#473434"/>
<path d="M195.158 15.2928L181.776 21.8966L181.95 0H195.158V15.2928Z" fill="#BD917D"/>
<path d="M201.24 29.543L277.009 95.2327L271.274 100.446L194.289 38.2321L201.24 29.543Z" fill="#778891"/>
<path d="M141.459 108.44L136.767 96.4492L0 158.663L4.8659 166.136L141.459 108.44Z" fill="#D9D9D9"/>
<path d="M152.928 176.041L65.8635 218.618L218.444 205.932L287.957 168.743L152.928 176.041Z" fill="#D9D9D9"/>
</svg>
