<svg width="190" height="141" viewBox="0 0 190 141" fill="none" xmlns="http://www.w3.org/2000/svg">
<g clip-path="url(#clip0_383_13394)">
<path d="M188.942 92.2703C187.313 93.104 185.682 93.9336 184.053 94.7712C180.964 96.3595 177.878 97.9516 174.789 99.5419C172.881 100.526 170.973 101.511 169.065 102.495C165.976 104.085 162.888 105.674 159.799 107.264C157.862 108.261 155.928 109.263 153.992 110.262C150.933 111.839 147.873 113.413 144.814 114.99C142.876 115.987 140.94 116.985 139.003 117.982C135.971 119.545 132.94 121.107 129.909 122.67C127.987 123.662 126.065 124.653 124.142 125.643C121.067 127.225 117.992 128.808 114.92 130.392C112.968 131.397 111.02 132.405 109.069 133.41C106.024 134.981 102.977 136.547 99.9319 138.118C98.5281 138.841 97.1262 139.566 95.7243 140.293C95.6037 140.356 95.4949 140.445 95.3803 140.52C95.317 140.52 95.2537 140.52 95.1904 140.52C95.1054 140.457 95.0263 140.382 94.9314 140.334C92.6141 139.143 90.2967 137.954 87.9794 136.763C84.9739 135.216 81.9725 133.667 78.969 132.12C77.0174 131.115 75.0678 130.109 73.1163 129.104C70.0713 127.536 67.0244 125.967 63.9774 124.397C62.0397 123.399 60.1059 122.397 58.1682 121.398C55.1371 119.835 52.1039 118.277 49.0708 116.714C47.1193 115.709 45.1697 114.701 43.2201 113.696C40.1751 112.125 37.1282 110.557 34.0832 108.988C32.1455 107.991 30.2097 106.993 28.272 105.996C25.2112 104.419 22.1524 102.843 19.0916 101.266C17.1697 100.275 15.2478 99.2811 13.3239 98.2894C10.2789 96.721 7.22997 95.1525 4.18499 93.584C3.32883 93.1435 2.47861 92.6931 1.58093 92.2249C1.68573 92.1479 1.75889 92.0807 1.84391 92.0353C3.40199 91.2313 4.96007 90.4292 6.51816 89.6272C9.83205 87.9244 13.1479 86.2216 16.4618 84.5168C18.3718 83.535 20.2779 82.5453 22.188 81.5636C25.6146 79.8015 29.0431 78.0434 32.4697 76.2833C34.5913 75.1948 36.7109 74.1044 38.8306 73.014C42.0456 71.3605 45.2606 69.7051 48.4776 68.0517C50.6111 66.9534 52.7465 65.857 54.882 64.7607C55.0461 64.6757 55.2102 64.5888 55.4396 64.4683C55.5543 66.5128 55.665 68.5001 55.7777 70.5229C55.311 70.7699 54.8424 71.0247 54.3679 71.2677C51.3466 72.8184 48.3254 74.3651 45.3041 75.9139C43.1687 77.0102 41.0352 78.1066 38.8998 79.2049C36.7367 80.3171 34.5755 81.4292 32.4124 82.5414C30.3066 83.6259 28.2008 84.7104 26.095 85.7929C23.9477 86.8992 21.7984 88.0015 19.6492 89.1077C17.7688 90.0756 15.8884 91.0475 14.008 92.0175C13.9151 92.0669 13.8301 92.1321 13.7095 92.2091C14.2077 92.4698 14.6645 92.7128 15.1272 92.9519C17.403 94.1213 19.6788 95.2868 21.9527 96.4582C24.9423 97.9971 27.9319 99.5399 30.9195 101.083C32.8553 102.082 34.793 103.082 36.7287 104.079C39.7322 105.628 42.7357 107.175 45.7391 108.724C47.6768 109.721 49.6126 110.719 51.5503 111.718C54.5399 113.259 57.5295 114.802 60.5172 116.343C62.4529 117.342 64.3906 118.34 66.3264 119.34C68.8395 120.635 71.3506 121.929 73.8637 123.223C76.2918 124.474 78.7198 125.726 81.1479 126.978C84.1376 128.519 87.1272 130.06 90.1148 131.603C91.7283 132.437 93.3417 133.27 94.9473 134.114C95.1806 134.236 95.3644 134.242 95.6017 134.116C96.9146 133.422 98.2354 132.747 99.5562 132.067C102.659 130.469 105.761 128.871 108.863 127.273C110.771 126.289 112.679 125.303 114.587 124.32C117.605 122.765 120.624 121.21 123.641 119.656C125.549 118.672 127.457 117.688 129.367 116.702C132.399 115.14 135.43 113.577 138.461 112.013C140.383 111.021 142.307 110.029 144.229 109.038C147.232 107.489 150.235 105.942 153.239 104.393C155.161 103.402 157.083 102.41 159.007 101.419C162.024 99.8619 165.041 98.3072 168.058 96.7526C169.98 95.7609 171.904 94.7712 173.826 93.7776C174.821 93.264 175.813 92.7464 176.873 92.1972C176.456 91.974 176.088 91.7706 175.716 91.5789C173.215 90.2949 170.714 89.0148 168.213 87.7308C166.063 86.6266 163.916 85.5223 161.767 84.4161C159.618 83.3118 157.47 82.2056 155.321 81.1013C153.186 80.003 151.052 78.9066 148.917 77.8103C146.781 76.7139 144.648 75.6176 142.512 74.5192C140.604 73.5355 138.696 72.5497 136.788 71.564C136.691 71.5146 136.602 71.4514 136.495 71.3862C136.602 69.3871 136.707 67.3978 136.818 65.3513C137.371 65.6259 137.868 65.8649 138.356 66.1158C139.788 66.8526 141.217 67.5954 142.649 68.3322C145.514 69.8039 148.381 71.2736 151.246 72.7453C153.282 73.7923 155.317 74.8412 157.354 75.8882C160.667 77.593 163.983 79.2938 167.297 80.9986C169.361 82.0594 171.424 83.1261 173.488 84.1869C176.774 85.8759 180.062 87.5629 183.349 89.2519C184.879 90.0381 186.409 90.8263 187.938 91.6184C188.274 91.7923 188.598 91.9859 188.928 92.1716C188.942 92.2071 188.942 92.2387 188.942 92.2703ZM88.2483 38.537C86.3936 50.2097 84.5488 61.8252 82.6942 73.4999C85.6403 73.4999 88.5093 73.4999 91.4099 73.4999C91.4257 75.9988 91.404 78.4503 91.4218 81.0045C91.5938 80.8248 91.6828 80.7398 91.7619 80.647C93.6344 78.3891 95.5127 76.1351 97.3674 73.8634C97.6067 73.571 97.8459 73.4762 98.2058 73.4762C101.085 73.4881 103.962 73.4821 106.84 73.4821C107.009 73.4821 107.177 73.4821 107.398 73.4821C107.084 71.4751 106.779 69.5333 106.471 67.5914C106.166 65.6634 105.858 63.7354 105.547 61.8094C105.235 59.8656 104.917 57.9237 104.608 55.9799C104.3 54.0361 104.003 52.0903 103.697 50.1465C103.392 48.2185 103.076 46.2925 102.775 44.3625C102.475 42.4305 102.141 40.5045 101.866 38.533C104.669 38.9419 107.4 39.339 110.214 39.7499C105.13 28.4228 100.09 17.1926 95.0461 5.95044C89.9942 17.3624 84.9542 28.7507 79.8805 40.2101C82.6981 39.6471 85.4406 39.098 88.2483 38.537ZM54.1128 110.983C54.7119 111.298 55.3091 111.614 55.9102 111.924C58.7297 113.382 61.5513 114.834 64.3689 116.293C66.1207 117.202 67.8686 118.121 69.6185 119.031C72.2937 120.424 74.969 121.817 77.6442 123.207C79.3526 124.096 81.0649 124.979 82.7752 125.866C85.4228 127.243 88.0703 128.622 90.7159 129.999C92.102 130.72 93.492 131.435 94.8741 132.166C95.0916 132.28 95.2676 132.312 95.489 132.188C95.9161 131.949 96.357 131.735 96.792 131.508C99.3961 130.153 102 128.794 104.606 127.441C105.951 126.741 107.299 126.05 108.646 125.351C111.224 124.011 113.798 122.666 116.375 121.327C118.168 120.394 119.966 119.472 121.759 118.539C124.715 117.003 127.667 115.46 130.623 113.925C132.43 112.987 134.241 112.054 136.051 111.118C136.165 111.059 136.268 110.974 136.436 110.861C136.134 110.825 135.916 110.786 135.697 110.774C134.91 110.735 134.121 110.707 133.334 110.669C132.94 110.65 132.549 110.614 132.155 110.584C131.596 110.541 131.086 110.63 130.572 110.906C128.624 111.953 126.655 112.957 124.693 113.974C122.9 114.905 121.102 115.831 119.307 116.758C115.841 118.545 112.373 120.331 108.909 122.121C107.829 122.678 106.753 123.247 105.674 123.806C105.219 124.041 104.758 124.264 104.209 124.539C105.551 119.958 106.864 115.474 108.195 110.93C107.699 110.93 107.258 110.93 106.817 110.93C104.143 110.93 101.472 110.924 98.799 110.938C98.5004 110.94 98.2987 110.859 98.1227 110.618C97.8163 110.197 97.4801 109.798 97.1558 109.391C95.3565 107.133 93.5572 104.875 91.7559 102.618C91.6769 102.517 91.576 102.434 91.402 102.26C91.402 105.217 91.402 108.05 91.402 110.93C88.4025 110.93 85.4505 110.93 82.4312 110.93C83.7243 115.482 85.051 119.958 86.3442 124.519C86.1959 124.46 86.1366 124.442 86.0832 124.414C83.1074 122.881 80.1316 121.349 77.1558 119.818C74.9097 118.662 72.6615 117.508 70.4134 116.355C66.9571 114.581 63.5009 112.809 60.0466 111.031C59.7856 110.897 59.5286 110.829 59.2339 110.831C57.8578 110.841 56.4816 110.833 55.1074 110.837C54.7812 110.839 54.4569 110.865 54.1306 110.881C54.1247 110.914 54.1188 110.95 54.1128 110.983ZM135.129 96.4187C135.024 96.2923 134.918 96.1678 134.819 96.0375C134.008 94.9688 133.197 93.9001 132.389 92.8294C129.545 89.0642 126.7 85.2971 123.859 81.53C122.708 80.005 121.559 78.4799 120.414 76.9529C120.264 76.7534 120.118 76.6349 119.837 76.6369C117.733 76.6507 115.631 76.6448 113.528 76.6467C113.409 76.6467 113.288 76.6744 113.178 76.6863C113.178 87.0493 113.178 97.3728 113.178 107.708C115.544 107.708 117.878 107.708 120.258 107.708C120.258 107.088 120.258 106.491 120.258 105.895C120.258 105.294 120.258 104.694 120.258 104.093C120.258 103.477 120.258 102.861 120.258 102.244C120.258 101.644 120.258 101.043 120.258 100.443C120.258 99.8421 120.258 99.2416 120.258 98.6411C120.258 98.0405 120.258 97.44 120.258 96.8395C120.258 96.239 120.258 95.6384 120.258 95.0379C120.258 94.4374 120.258 93.8368 120.258 93.2363C120.258 92.62 120.258 92.0037 120.258 91.3873C120.258 90.7868 120.252 90.1863 120.26 89.5857C120.266 88.999 120.23 88.4084 120.292 87.7328C120.43 87.9027 120.511 87.9936 120.584 88.0923C121.585 89.4336 122.581 90.7769 123.582 92.1162C125.189 94.2655 126.801 96.4108 128.406 98.5601C130.617 101.519 132.828 104.478 135.03 107.442C135.19 107.657 135.362 107.734 135.623 107.732C137.68 107.722 139.734 107.728 141.791 107.726C141.911 107.726 142.03 107.702 142.144 107.69C142.144 97.3314 142.144 87.0078 142.144 76.6665C139.831 76.6665 137.547 76.6665 135.214 76.6665C135.214 83.2565 135.214 89.8169 135.214 96.3772C135.188 96.397 135.159 96.4088 135.129 96.4187ZM55.4989 76.6704C53.1202 76.6704 50.7891 76.6704 48.4322 76.6704C48.4322 87.0295 48.4322 97.3649 48.4322 107.708C50.797 107.708 53.1301 107.708 55.5147 107.708C55.5147 107.181 55.5147 106.679 55.5147 106.179C55.5147 105.658 55.5147 105.136 55.5147 104.615C55.5147 104.109 55.5147 103.603 55.5147 103.098C55.5147 102.576 55.5147 102.055 55.5147 101.533C55.5147 101.027 55.5147 100.522 55.5147 100.016C55.5147 99.4944 55.5147 98.9729 55.5147 98.4514C55.5147 97.9457 55.5108 97.44 55.5147 96.9343C55.5187 96.4207 55.4969 95.9071 55.5286 95.4132C59.4139 95.4132 63.232 95.4132 67.1054 95.4132C67.1054 99.53 67.1054 103.611 67.1054 107.696C69.5058 107.696 71.8528 107.696 74.2038 107.696C74.2038 97.3393 74.2038 87.0177 74.2038 76.6764C71.8251 76.6764 69.4801 76.6764 67.0856 76.6764C67.0856 80.6529 67.0856 84.5939 67.0856 88.5605C63.2161 88.5605 59.3961 88.5605 55.4969 88.5605C55.4989 84.5761 55.4989 80.6351 55.4989 76.6704ZM88.2423 89.6944C88.2423 85.3603 88.2423 81.0282 88.2423 76.6704C85.8578 76.6704 83.5266 76.6704 81.1717 76.6704C81.1717 87.0315 81.1717 97.3669 81.1717 107.706C83.5384 107.706 85.8696 107.706 88.2621 107.706C88.2621 102.874 88.2621 98.0721 88.2621 93.1632C88.4104 93.3311 88.4855 93.4062 88.5508 93.4892C92.2562 98.1413 95.9636 102.793 99.665 107.447C99.8093 107.629 99.9557 107.74 100.211 107.74C102.837 107.73 105.46 107.734 108.086 107.732C108.183 107.732 108.28 107.698 108.42 107.675C106.235 104.947 104.086 102.264 101.935 99.5814C99.7757 96.8869 97.6146 94.1944 95.4514 91.496C97.1124 89.5225 98.7475 87.5807 100.381 85.6388C102.797 82.7666 105.215 79.8963 107.631 77.024C107.714 76.9253 107.78 76.8127 107.898 76.6428C106.708 76.6428 105.619 76.6428 104.529 76.6428C102.868 76.6428 101.207 76.6487 99.5483 76.6369C99.2992 76.6349 99.1292 76.706 98.9828 76.8976C98.8009 77.1366 98.6111 77.3678 98.4193 77.5989C95.8212 80.7299 93.2231 83.8629 90.625 86.992C89.8696 87.9027 89.1123 88.8094 88.355 89.7181C88.3175 89.7122 88.2799 89.7023 88.2423 89.6944ZM118.056 49.5084C120.689 50.2196 123.311 50.9268 125.965 51.6439C125.405 53.157 124.869 54.605 124.335 56.053C123.799 57.503 123.268 58.9529 122.734 60.4029C122.2 61.8528 121.666 63.3028 121.13 64.7527C120.596 66.2027 120.051 67.6487 119.527 69.1026C119.007 70.5486 118.437 71.9769 117.937 73.4841C118.168 73.4841 118.326 73.4841 118.483 73.4841C119.447 73.4841 120.412 73.494 121.377 73.4782C121.658 73.4742 121.836 73.5572 122.006 73.7863C122.92 75.015 123.855 76.228 124.776 77.4488C127.096 80.5225 129.413 83.5982 131.734 86.672C131.803 86.7648 131.892 86.8439 132.007 86.9683C132.039 86.6246 132.076 86.3441 132.09 86.0616C132.138 85.0699 132.169 84.0783 132.223 83.0866C132.298 81.7354 132.391 80.3842 132.47 79.035C132.515 78.233 132.543 77.429 132.586 76.627C132.64 75.6531 132.701 74.6792 132.754 73.7034C132.798 72.9014 132.834 72.0993 132.873 71.2953C132.928 70.2108 132.986 69.1263 133.039 68.0398C133.085 67.1114 133.118 66.183 133.17 65.2545C133.247 63.9033 133.338 62.5521 133.417 61.2029C133.462 60.4167 133.494 59.6305 133.535 58.8443C133.589 57.8388 133.652 56.8333 133.702 55.8258C133.751 54.8342 133.779 53.8425 133.834 52.8508C133.907 51.5155 134.002 50.1801 134.081 48.8467C134.129 48.0288 134.162 47.211 134.204 46.3932C134.259 45.2929 134.315 44.1926 134.368 43.0903C134.413 42.1777 134.447 41.265 134.5 40.3524C134.578 39.0012 134.668 37.65 134.748 36.3008C134.793 35.5304 134.823 34.758 134.86 33.9876C134.882 33.5549 134.904 33.1223 134.927 32.67C134.562 32.8813 118.307 49.1094 118.056 49.5084ZM65.8538 51.6419C68.6793 50.9209 71.4514 50.2156 74.2651 49.4966C74.188 49.3919 74.1583 49.3366 74.1168 49.2951C68.5686 43.76 63.0204 38.2248 57.4722 32.6917C57.4623 32.6818 57.4425 32.6798 57.4287 32.6818C57.4129 32.6838 57.399 32.6917 57.3555 32.7095C57.3555 32.8359 57.3476 32.9742 57.3575 33.1125C57.4386 34.432 57.5256 35.7496 57.6047 37.0692C57.6482 37.808 57.6759 38.5468 57.7154 39.2876C57.7727 40.3721 57.834 41.4566 57.8914 42.5411C57.9369 43.4222 57.9725 44.3032 58.0239 45.1842C58.101 46.5038 58.1919 47.8214 58.271 49.141C58.3165 49.8956 58.3461 50.6502 58.3857 51.4048C58.4411 52.4735 58.5023 53.5422 58.5577 54.6109C58.6032 55.492 58.6368 56.373 58.6882 57.2541C58.7653 58.5736 58.8563 59.8912 58.9354 61.2108C58.9809 61.9654 59.0066 62.72 59.0481 63.4747C59.1015 64.4643 59.1687 65.454 59.2201 66.4437C59.2695 67.4038 59.2972 68.3638 59.3526 69.3239C59.4277 70.6276 59.5206 71.9294 59.5997 73.2332C59.6472 74.0194 59.6749 74.8057 59.7164 75.5919C59.7718 76.6448 59.8311 77.6977 59.8864 78.7506C59.9319 79.6474 59.9695 80.5442 60.0189 81.4411C60.0763 82.4782 60.1395 83.5153 60.2048 84.5504C60.2226 84.8309 60.2542 85.1094 60.2819 85.4038C61.4939 85.4038 62.6704 85.4038 63.9121 85.4038C63.9121 81.4233 63.9121 77.4705 63.9121 73.4782C67.4139 73.4782 70.8543 73.4782 74.3699 73.4782C71.5167 66.1691 68.6932 58.9233 65.8538 51.6419ZM45.1796 81.1211C45.1796 80.0879 45.1796 79.0864 45.1796 78.0394C45.0748 78.0789 45.0036 78.0987 44.9383 78.1323C42.188 79.5486 39.4376 80.967 36.6852 82.3834C34.5379 83.4896 32.3887 84.5919 30.2413 85.6961C28.0782 86.8083 25.9171 87.9224 23.7539 89.0306C21.8143 90.0243 19.8726 91.014 17.9349 92.0076C17.8439 92.055 17.7628 92.1242 17.6284 92.217C26.8286 96.9481 35.9754 101.652 45.1776 106.383C45.1776 105.3 45.1776 104.299 45.1776 103.267C38.0357 99.5952 30.8919 95.9209 23.6492 92.1953C30.8998 88.4657 38.0416 84.7934 45.1796 81.1211ZM166.328 92.5113C164.252 93.582 162.174 94.6507 160.096 95.7194C157.344 97.1338 154.593 98.5482 151.839 99.9606C149.874 100.97 147.904 101.974 145.939 102.983C145.745 103.082 145.561 103.198 145.401 103.291C145.401 104.328 145.401 105.316 145.401 106.355C145.583 106.272 145.725 106.215 145.862 106.144C147.307 105.401 148.753 104.654 150.198 103.91C152.865 102.537 155.531 101.164 158.198 99.7927C160.345 98.6885 162.492 97.5822 164.642 96.4799C167.143 95.1979 169.644 93.9198 172.145 92.6378C172.403 92.5054 172.652 92.3573 172.964 92.1814C163.738 87.4365 154.593 82.735 145.397 78.0058C145.397 79.0884 145.397 80.0919 145.397 81.1211C152.539 84.7934 159.679 88.4657 166.904 92.1834C166.657 92.3256 166.496 92.4244 166.328 92.5113ZM108.373 81.0855C105.429 84.582 102.5 88.0607 99.5641 91.5473C102.514 95.2256 105.431 98.8623 108.408 102.576C108.519 101.658 108.482 81.451 108.373 81.0855ZM108.699 51.6498C108.782 52.3372 108.877 53.0207 108.964 53.7082C109.114 54.8776 109.267 56.0451 109.405 57.2165C109.429 57.4121 109.496 57.5326 109.672 57.6175C110.012 57.7835 110.342 57.9672 110.678 58.141C112.136 58.8937 113.593 59.6483 115.052 60.3969C116.102 60.9362 117.156 61.4656 118.247 62.0207C118.896 60.2606 119.535 58.5262 120.179 56.776C116.331 54.7966 112.535 52.8429 108.642 50.8418C108.667 51.1816 108.671 51.4167 108.699 51.6498ZM73.5632 61.3945C75.9636 60.1579 78.3145 58.949 80.6279 57.7578C80.9067 55.5137 81.1776 53.3408 81.4564 51.0868C78.1029 52.8113 74.8405 54.4885 71.5266 56.1933C72.2166 57.9534 72.8869 59.6641 73.5632 61.3945ZM109.755 59.6759C109.741 59.7944 109.727 59.8438 109.733 59.8893C109.852 60.8414 109.98 61.7916 110.085 62.7437C110.111 62.9828 110.267 63.0519 110.435 63.1388C112.272 64.087 114.109 65.0372 115.946 65.9834C116.167 66.098 116.395 66.1988 116.664 66.3272C116.986 65.454 117.294 64.6164 117.624 63.7216C114.979 62.3645 112.381 61.0271 109.755 59.6759ZM75.6788 65.4382C76.3966 65.0747 77.1123 64.7073 77.8281 64.3399C78.4173 64.0376 79.0046 63.7315 79.5978 63.4332C79.8607 63.3008 79.9932 63.1191 80.009 62.8089C80.0328 62.3704 80.1217 61.9358 80.1731 61.4992C80.2325 61.0014 80.2799 60.5016 80.3412 59.9228C78.2651 60.9896 76.2542 62.0247 74.2216 63.0697C74.5656 63.9507 74.8919 64.7824 75.226 65.6397C75.3981 65.5646 75.5404 65.5074 75.6788 65.4382Z" fill="black"/>
</g>
<defs>
<clipPath id="clip0_383_13394">
<rect width="189" height="140" fill="white" transform="translate(0.88916 0.926025)"/>
</clipPath>
</defs>
</svg>
