<svg width="437" height="75" viewBox="0 0 437 75" fill="none" xmlns="http://www.w3.org/2000/svg">
<g clip-path="url(#clip0_383_13397)">
<path fill-rule="evenodd" clip-rule="evenodd" d="M36.9533 1.33787C36.6544 1.5407 36.3012 1.89236 36.0683 2.21581C35.6026 2.90893 34.7175 4.06417 34.5312 4.38761L34.3915 4.52624C34.2983 4.75728 34.004 5.20835 33.6653 5.62838C29.9368 10.8575 28.6318 12.1995 24.1109 16.9195C19.7765 21.4082 15.2989 25.7185 9.5696 30.2007C8.87049 30.6634 8.35955 31.0476 8.218 31.1724C8.07644 31.2972 7.92735 31.399 7.79853 31.4963C7.57775 31.6633 6.67981 32.3758 6.40034 32.5607C6.33046 32.6069 5.53291 33.235 4.44284 33.9489C2.25232 35.3835 1.45224 35.7228 1.13376 36.3553C0.52787 37.5584 0.99394 38.4839 2.48537 39.4557C4.16321 40.52 3.77116 40.2553 4.07 40.4737L4.20981 40.5663C4.61584 40.863 5.57663 41.4801 6.46073 42.1344C7.4516 42.8677 8.03355 43.3709 8.48966 43.7102C8.74131 43.8975 8.50538 43.7414 8.86714 43.9755C9.13451 44.1484 9.21316 44.2095 9.60636 44.4748C9.91343 44.7359 10.5467 45.2531 11.064 45.6757L11.1792 45.7698C14.4978 48.3754 18.1152 51.6831 22.1102 55.7086C25.9164 59.5467 28.6846 62.5113 29.6597 63.7906C30.0058 64.2431 30.855 65.3353 31.5472 66.1934C33.2772 68.3466 34.6337 70.3991 35.483 71.7096C36.2222 72.8486 36.7414 73.283 37.5802 73.6532C38.2557 73.9513 39.5867 73.3472 40.1207 72.5905C40.3409 72.2784 40.601 71.8986 40.6797 71.8049C40.762 71.7232 41.0424 71.2686 41.3784 70.7878C41.4272 70.7179 41.5148 70.6281 41.5647 70.5568C41.9579 69.995 42.4926 69.2365 42.7758 68.8933C42.9815 68.6551 43.2978 68.1877 43.6608 67.738C43.7973 67.5691 43.9554 67.3371 44.08 67.1836C45.7158 65.1241 47.6146 62.6757 48.0393 62.2856C48.0858 62.1932 48.8777 61.3152 49.8559 60.2987C51.7118 58.2079 57.4949 52.4433 60.0568 50.1792C61.9452 48.3891 64.7613 46.1591 66.8574 44.4495C67.0959 44.2692 67.3232 44.126 67.5562 43.9874C68.6274 43.2019 69.5824 42.4119 69.8439 42.2041L69.8923 42.1656C70.0496 42.0408 70.5529 41.7131 70.5529 41.7131L70.9462 41.4011C71.7326 40.8549 71.6086 40.8915 72.3072 40.3832C72.7434 40.0659 73.209 39.7669 73.6115 39.5053C73.891 39.3204 74.1322 39.1301 74.2636 39.0432C75.2884 38.119 75.6079 37.9749 75.2852 36.5866C75.1453 35.985 74.12 35.3371 72.7218 34.5043C71.0905 33.4399 70.7643 33.2085 68.3873 31.4038C67.01 30.358 64.752 28.7198 62.981 27.1464C62.0688 26.3664 61.1056 25.4374 60.7439 25.1566C60.1933 24.7041 55.2366 20.0431 54.5918 19.3721C54.466 19.2473 53.8075 18.5935 53.1469 17.8914C52.8497 17.5824 52.5877 17.3824 52.0749 16.7808C51.4691 16.1792 51.0573 15.7409 50.6767 15.3462C49.0921 13.7728 47.321 11.6905 46.4355 10.6261C44.318 8.08098 42.0079 4.74915 41.402 3.86992C41.0245 3.30822 40.735 2.88354 40.6563 2.80558C40.4991 2.57149 40.5194 2.65483 40.2834 2.34283C39.9689 1.8747 39.6385 1.46732 39.0251 1.13967C38.3726 0.769465 37.5336 0.908292 36.9533 1.33787ZM42.0762 11.6617C41.6201 11.2871 40.7638 10.789 39.6 10.4301C37.6653 9.8216 35.8313 10.6185 34.0147 11.8199C33.417 12.288 32.8999 12.6805 32.6639 12.8365C32.2235 13.1174 31.9168 13.3484 30.8473 14.269C30.5327 14.5341 29.8872 15.022 29.6828 15.1469C28.006 16.4869 22.9172 21.3495 21.3916 22.9097C18.5968 25.768 17.7118 26.8374 16.4481 28.2949C15.8504 28.9815 15.4773 29.5162 15.3829 29.6098C15.2885 29.6879 14.9364 30.1439 14.6376 30.534C14.3387 30.924 13.8941 31.5175 13.7525 31.6892C12.6516 32.9998 11.1786 35.0228 10.9112 35.7092C10.492 36.6334 10.2125 37.1416 10.8181 38.6665C10.9475 38.9925 11.1441 39.452 11.377 39.8679L11.8428 40.6534L12.3086 41.3466C12.4659 41.5962 12.7556 42.0673 13.0073 42.3169C13.2275 42.6133 13.2837 42.7141 13.5196 42.9638C13.8457 43.3089 18.4105 48.9245 21.345 51.4198C27.9128 58.2123 34.8998 63.8223 36.8095 64.0807C37.8342 64.2193 38.533 64.9586 41.514 62.8793C41.7343 62.7076 42.6978 62.0559 43.6101 61.4007C44.5223 60.7453 45.2398 60.1231 45.287 60.0607C45.3342 60.0138 45.7062 59.7834 46.172 59.3213C46.691 58.9156 47.1646 58.537 47.2433 58.4434C47.3377 58.3498 48.1361 57.6488 48.7339 57.1495C51.2491 55.0483 55.8606 50.819 59.4006 46.7066C59.6679 46.3789 60.2492 45.7117 60.6583 45.228C61.366 44.4479 63.2631 42.2292 63.5462 41.8548C64.8202 40.0918 65.7185 38.9413 65.8286 37.9271C65.8758 37.3187 65.8502 36.5174 65.457 35.6905C65.1896 35.1445 64.8121 34.4891 64.6076 34.2239C61.9624 30.2568 59.0709 27.3108 58.1429 26.4215C58.0171 26.2967 57.4962 25.7656 57.0717 25.2664C56.0469 24.1573 51.8629 19.943 50.4655 18.603C49.8521 18.0569 49.1045 17.3588 48.6012 16.8908C48.0979 16.4227 47.5758 15.965 47.4826 15.8264C47.341 15.7485 46.4776 15.1672 46.0845 14.8084C45.0778 13.9191 43.2589 12.4801 43.1016 12.4021C42.8656 12.2461 42.3279 11.8332 42.0762 11.6617Z" fill="#00629B"/>
<path d="M36.9027 12.1903C36.3437 12.3289 34.8999 13.5302 33.1298 14.7779C31.9652 15.6559 31.8529 15.775 31.4994 16.0255C31.1824 16.2502 31.0803 16.349 30.6611 16.6724C30.5679 16.7186 30.0555 17.1345 29.6363 17.5042C29.2171 17.8738 28.9935 18.0251 28.7978 18.2435C28.672 18.3839 27.859 19.0836 27.2142 19.6297C24.6522 21.7552 19.9012 26.6994 18.5038 28.2243C17.9848 28.8328 17.4663 29.5151 17.2461 29.7492C16.5069 30.5293 14.0412 33.5406 13.3334 34.5547C11.9826 36.172 11.9307 37.7633 12.9845 39.4482C13.8181 40.7589 17.5615 45.2056 19.7791 47.5147C20.7386 48.4977 22.3233 50.141 22.3233 50.1728C23.8139 51.8363 30.1487 57.4274 32.1981 59.0447C36.8671 62.7289 36.3903 62.4641 38.5796 62.6027C39.4646 62.4641 39.8372 62.2792 42.7251 60.1076C44.7281 58.6289 44.9688 58.3402 46.7776 56.8268C47.7092 55.995 48.7878 55.0943 49.4327 54.4702C50.271 53.7309 51.2281 52.8115 51.6685 52.4371C53.6713 50.8198 57.3977 46.7535 58.8417 45.09C59.0934 44.7468 59.6336 44.1659 59.6802 44.1197C59.7733 44.0272 61.0878 42.4472 61.4967 41.948C62.1023 41.1162 62.9407 40.3307 63.7326 38.8058C64.1572 37.9321 64.1892 36.523 63.686 35.5713C63.1355 34.5259 59.5344 30.1464 57.584 27.9933C57.0021 27.3536 55.9907 26.4288 55.5346 25.9139C53.7259 23.9012 51.0704 21.3676 46.0846 17.0301C43.3348 14.9013 40.9578 13.0868 39.8858 12.4488C38.7214 11.7557 37.9275 11.7282 36.9027 12.1903ZM39.6752 18.0573C41.3738 21.3338 42.2232 23.0501 42.3332 23.3621C42.4118 23.5961 42.3176 23.6429 41.6726 23.6429C40.4615 23.6429 40.6031 23.1904 40.2414 28.7917C40.147 30.2116 40.037 31.7251 39.974 32.162C39.974 32.8485 39.9304 33.0334 40.0235 33.2182C40.291 33.4366 42.7579 33.5349 42.9938 33.3633C43.2297 33.1917 44.1577 30.8201 44.1577 30.3832C44.1577 30.1024 44.0633 30.04 43.7016 30.04C43.0882 30.04 42.2704 29.8683 42.2704 29.7435C42.2704 29.6811 42.5535 29.4315 42.9152 29.1662C43.2612 28.9166 43.8274 28.4954 44.1577 28.2457C45.9822 26.8415 47.6021 25.6868 48.074 25.4372C48.074 25.4372 48.5511 25.1312 48.6088 25.172C48.6664 25.2129 48.656 25.2812 48.6088 25.5153C48.5616 25.7492 48.5616 25.8273 48.5616 25.8273C48.4987 26.2017 48.3257 26.7322 48.247 26.9975C48.1684 27.2471 47.901 28.1365 47.6493 28.9478C47.3977 29.7592 47.0203 31.023 46.8315 31.7563C46.108 34.4711 45.3058 36.8582 45.0856 36.9987C45.007 37.0455 44.1263 36.9675 43.1039 36.827C42.0973 36.7022 40.9334 36.5931 40.5245 36.5931C39.8011 36.5931 39.7853 36.5931 39.6909 37.1703C39.6437 37.498 39.5494 39.854 39.5022 42.3971L39.4392 46.8907H39.9897C42.1917 46.8126 45.935 46.0949 47.6021 45.2836C48.6874 44.7532 49.5052 43.8482 49.5052 43.1929C49.6625 42.522 48.4421 41.6854 47.6021 41.2738C47.4763 41.212 47.3465 40.9985 46.8707 41.2738C45.9392 41.8128 46.1255 41.8128 45.7063 41.9052C45.3803 41.9771 44.9815 41.0397 44.5884 40.2596C43.6447 38.0753 44.2132 38.2852 45.0856 38.3935C45.7148 38.4714 49.5548 39.7622 49.7122 39.9183C49.8365 40.0416 49.5259 40.0569 49.2464 40.1493C48.9669 40.2418 49.06 40.1955 48.9548 40.2596C48.8496 40.3237 49.2221 40.4781 49.3638 40.5717C51.2353 41.7262 51.6286 42.2879 51.6286 43.4894C51.6286 44.0822 51.55 44.3943 50.858 45.1588C49.2693 46.7659 46.4226 47.9048 41.6412 48.451C40.4617 48.5856 39.4356 48.6977 39.2782 48.6977C39.2782 48.7757 39.2033 50.3857 39.1089 52.4452C38.8126 60.0648 38.6728 60.0648 38.3933 60.1571C37.5083 60.2958 37.7412 60.0648 37.489 56.9076C37.4418 55.3004 37.3474 52.7416 37.3002 51.2126L37.1822 48.6515C37.1822 48.6515 36.2506 48.5869 35.9004 48.5289C35.5503 48.4711 35.555 48.4866 35.2713 48.451C34.9877 48.4153 34.7051 48.3885 34.2333 48.3105C33.7614 48.2325 32.8964 48.0765 32.283 47.9829C31.2291 47.7957 30.6472 47.6707 29.2946 47.3275C28.1307 47.0311 25.5513 45.9077 24.9065 45.4084C23.9471 44.6908 23.5538 44.0198 23.5538 43.1148C23.5538 42.1008 23.9156 41.3986 24.8121 40.6184C26.1489 39.4794 29.3732 37.9972 30.5213 37.9972C30.5529 37.9972 31.3707 38.3093 31.9683 38.6994C32.5819 39.0895 33.2267 39.4639 33.4311 39.5575C33.6198 39.6355 33.8558 39.7915 33.7772 39.932C33.6198 40.1036 33.4783 40.2909 32.0471 40.7432C30.7888 41.1178 30.1596 41.4766 29.4204 42.1787C27.6117 43.9262 28.87 45.3148 33.2267 46.3445C33.84 46.485 34.5635 46.5786 34.8781 46.6566C35.177 46.719 35.3499 46.7346 35.979 46.8126C36.6082 46.8907 37.0643 46.8907 37.0643 46.8907V45.1276C37.0486 44.1759 36.9699 41.8667 36.8755 40.0256C36.8755 40.0256 36.8755 36.827 36.6868 36.671C36.4981 36.515 35.9004 36.5925 35.9004 36.5925C35.9004 36.5925 34.2804 36.6867 33.2581 36.827C32.0471 36.9987 31.2607 37.0611 31.2449 36.9518C31.0247 36.671 30.144 33.8469 29.7507 32.2244C29.6249 31.6627 29.4518 31.1321 29.389 30.8982C29.2326 30.3164 28.3823 27.6684 27.9892 26.2642C27.7218 24.579 27.6431 24.7045 29.0745 25.7649C29.6353 26.1804 30.2471 26.6855 30.2698 26.701C30.4743 26.8415 30.7102 26.9975 31.0247 27.2316C31.3393 27.4655 31.5752 27.6372 31.6538 27.6996C32.0559 28.0187 31.9841 27.9648 32.0471 28.0117C32.4402 28.3237 34.1231 29.7435 34.0287 29.8528C33.9816 29.884 33.5727 29.9619 33.1166 30.0243C32.1414 30.1336 32.1414 30.1336 32.7705 31.9591C33.1008 32.942 33.2739 33.2073 33.6042 33.3477C34.0287 33.5037 35.9634 33.4413 36.2779 33.2541C36.4981 33.1137 36.4981 32.1775 36.2937 29.1818C36.0105 25.2344 35.8532 23.9082 35.6331 23.7834C35.5229 23.7054 35.1298 23.6429 34.7523 23.6429H34.0603L34.1703 23.128C34.2332 22.8629 34.4848 22.2699 34.7209 21.8487C35.0826 21.1933 36.7655 17.9949 37.7721 16.029C37.9294 15.7481 38.1338 15.5296 38.2282 15.5608C38.3383 15.5921 38.9831 16.7154 39.6752 18.0573Z" fill="#00629B"/>
<path d="M91.6536 19.0757H102.475V57.0623H91.6536V19.0757ZM140.891 48.7595V57.0623H110.174V19.0757H140.18V27.3785H120.887V33.7819H137.884V41.8134H120.887V48.7595H140.891ZM177.613 48.7595V57.0623H146.896V19.0757H176.902V27.3785H157.609V33.7819H174.607V41.8134H157.609V48.7595H177.613ZM214.334 48.7595V57.0623H183.617V19.0757H213.623V27.3785H194.33V33.7819H211.327V41.8134H194.33V48.7595H214.334Z" fill="#00629B"/>
<path d="M245.738 26.4755C248.616 26.4755 251.172 27.0613 253.408 28.233C255.665 29.4046 257.414 31.008 258.656 33.043C259.92 35.078 260.551 37.3494 260.551 39.8571C260.551 41.7071 260.25 43.3002 259.65 44.6363C259.07 45.9519 258.263 46.9592 257.228 47.658C256.213 48.3363 255.044 48.6755 253.719 48.6755C252.622 48.6755 251.679 48.4494 250.893 47.9971C250.106 47.545 249.526 46.8769 249.154 45.993C248.139 47.7813 246.462 48.6755 244.123 48.6755C242.902 48.6755 241.763 48.3569 240.707 47.7196C239.651 47.0619 238.803 46.1471 238.161 44.9755C237.54 43.8038 237.229 42.4575 237.229 40.9363C237.229 39.4152 237.54 38.0688 238.161 36.8971C238.782 35.7255 239.62 34.8211 240.676 34.1838C241.732 33.5467 242.881 33.228 244.123 33.228C245.945 33.228 247.384 33.8138 248.44 34.9855V33.4746H253.501V42.8788C253.501 43.5367 253.626 44.0094 253.874 44.2971C254.122 44.585 254.454 44.7288 254.868 44.7288C256.172 44.7288 256.824 43.1358 256.824 39.9496C256.824 37.9969 256.358 36.26 255.427 34.7388C254.516 33.2177 253.222 32.0358 251.545 31.193C249.868 30.3296 247.933 29.898 245.738 29.898C243.564 29.898 241.629 30.3605 239.931 31.2855C238.254 32.2105 236.949 33.4952 236.018 35.1396C235.086 36.7636 234.62 38.593 234.62 40.628C234.62 42.7042 235.076 44.5644 235.987 46.2088C236.897 47.8533 238.182 49.1277 239.838 50.0321C241.514 50.9571 243.44 51.4196 245.614 51.4196C247.828 51.4196 249.889 50.9675 251.793 50.063L252.942 53.3621C252.011 53.8144 250.883 54.1742 249.557 54.4413C248.253 54.7086 246.939 54.8421 245.614 54.8421C242.611 54.8421 239.962 54.2255 237.664 52.9921C235.387 51.7588 233.617 50.063 232.353 47.9046C231.111 45.7463 230.49 43.3208 230.49 40.628C230.49 37.9558 231.121 35.5508 232.385 33.413C233.648 31.2546 235.428 29.5588 237.726 28.3255C240.045 27.0921 242.716 26.4755 245.738 26.4755ZM245.458 44.4821C246.369 44.4821 247.104 44.1738 247.663 43.5571C248.243 42.9405 248.533 42.0669 248.533 40.9363C248.533 39.8263 248.243 38.963 247.663 38.3463C247.104 37.7296 246.369 37.4213 245.458 37.4213C244.548 37.4213 243.812 37.7296 243.253 38.3463C242.694 38.963 242.415 39.8263 242.415 40.9363C242.415 42.0463 242.694 42.92 243.253 43.5571C243.812 44.1738 244.548 44.4821 245.458 44.4821Z" fill="#00629B"/>
<path d="M295.741 57.6042C290.458 57.6042 286.341 56.139 283.389 53.2086C280.438 50.2421 278.962 46.0093 278.962 40.5102V19.0749H286.067V40.2389C286.067 47.6916 289.311 51.4178 295.796 51.4178C302.245 51.4178 305.47 47.6916 305.47 40.2389V19.0749H312.466V40.5102C312.466 46.0093 310.99 50.2421 308.039 53.2086C305.123 56.139 301.024 57.6042 295.741 57.6042ZM340.125 57.6042C336.262 57.6042 332.764 56.7722 329.631 55.108C326.533 53.4077 324.093 51.0742 322.308 48.1076C320.559 45.141 319.684 41.7946 319.684 38.0682C319.684 34.342 320.576 30.9956 322.362 28.0289C324.147 25.0624 326.588 22.747 329.686 21.0828C332.819 19.3825 336.317 18.5322 340.18 18.5322C343.313 18.5322 346.173 19.0749 348.761 20.1602C351.347 21.2456 353.533 22.8193 355.319 24.8814L350.728 29.1685C347.958 26.202 344.552 24.7186 340.508 24.7186C337.884 24.7186 335.534 25.2976 333.457 26.4552C331.38 27.5768 329.758 29.1505 328.593 31.1764C327.426 33.2024 326.844 35.4997 326.844 38.0682C326.844 40.6369 327.426 42.9342 328.593 44.9601C329.758 46.9861 331.38 48.5779 333.457 49.7356C335.534 50.8572 337.884 51.4178 340.508 51.4178C344.552 51.4178 347.958 49.9165 350.728 46.9137L355.319 51.255C353.533 53.3172 351.329 54.8909 348.706 55.9762C346.119 57.0616 343.258 57.6042 340.125 57.6042ZM373.774 57.6042C370.823 57.6042 367.962 57.1882 365.193 56.3561C362.461 55.5241 360.292 54.4206 358.689 53.0458L361.149 47.5649C362.715 48.795 364.628 49.808 366.888 50.6038C369.183 51.3636 371.479 51.7434 373.774 51.7434C376.616 51.7434 378.729 51.2913 380.114 50.3868C381.535 49.4824 382.246 48.2885 382.246 46.8052C382.246 45.7198 381.845 44.8335 381.043 44.1461C380.278 43.4226 379.294 42.8618 378.092 42.4638C376.89 42.066 375.25 41.6137 373.173 41.1072C370.258 40.4198 367.889 39.7325 366.068 39.045C364.282 38.3577 362.734 37.2905 361.422 35.8433C360.146 34.3601 359.509 32.3702 359.509 29.874C359.509 27.7757 360.073 25.8764 361.203 24.176C362.369 22.4394 364.1 21.0648 366.396 20.0517C368.727 19.0388 371.569 18.5322 374.922 18.5322C377.253 18.5322 379.549 18.8217 381.808 19.4005C384.067 19.9794 386.017 20.8114 387.657 21.8968L385.416 27.3777C383.739 26.4009 381.99 25.6593 380.169 25.1528C378.347 24.6464 376.579 24.393 374.867 24.393C372.061 24.393 369.966 24.8634 368.582 25.804C367.233 26.7446 366.56 27.9928 366.56 29.5484C366.56 30.6337 366.942 31.5201 367.707 32.2074C368.509 32.8949 369.511 33.4376 370.713 33.8354C371.916 34.2334 373.556 34.6857 375.632 35.1921C378.475 35.8433 380.806 36.5308 382.628 37.2542C384.449 37.9417 385.998 39.0089 387.274 40.456C388.586 41.9032 389.242 43.8568 389.242 46.3168C389.242 48.4151 388.658 50.3145 387.493 52.0148C386.362 53.7152 384.632 55.0718 382.3 56.0848C379.968 57.0978 377.126 57.6042 373.774 57.6042ZM396.287 19.0749H413.012C417.092 19.0749 420.718 19.8709 423.888 21.4626C427.058 23.0184 429.518 25.2433 431.267 28.1374C433.016 30.9956 433.89 34.3058 433.89 38.0682C433.89 41.8308 433.016 45.1592 431.267 48.0533C429.518 50.9114 427.058 53.1363 423.888 54.7281C420.718 56.2838 417.092 57.0616 413.012 57.0616H396.287V19.0749ZM412.684 51.0922C415.489 51.0922 417.948 50.5677 420.062 49.5185C422.211 48.4332 423.851 46.9137 424.981 44.9601C426.146 42.9704 426.73 40.673 426.73 38.0682C426.73 35.4634 426.146 33.1842 424.981 31.2306C423.851 29.2409 422.211 27.7214 420.062 26.6722C417.948 25.5869 415.489 25.0442 412.684 25.0442H403.392V51.0922H412.684Z" fill="#00629B"/>
</g>
<defs>
<clipPath id="clip0_383_13397">
<rect width="436" height="74" fill="white" transform="translate(0.875977 0.926025)"/>
</clipPath>
</defs>
</svg>
