<svg width="357" height="387" viewBox="0 0 357 387" fill="none" xmlns="http://www.w3.org/2000/svg">
<path d="M18.0564 30H15.077V24.5244H2.96628V22.1087L12.2265 6.97028H15.3508L6.07449 22.1087H15.077V13.9275H18.0564V22.1087L20.4399 23.3327V24.5244H18.0564V30ZM26.2376 27.0206V30H23.2582V27.0206H26.2376ZM31.8903 30V9.85302H29.4746V8.41971L34.8697 6.80924V30H31.8903ZM39.2341 30V27.5843C47.7695 21.7114 52.0373 17.0411 52.0373 13.5732C52.0373 10.6744 50.2121 9.22494 46.5617 9.22494C44.1997 9.22494 41.9719 9.81545 39.8782 10.9965V8.41971C41.9719 7.34606 44.1997 6.80924 46.5617 6.80924C52.1983 6.80924 55.0167 9.06389 55.0167 13.5732C55.0167 17.5457 51.1784 22.2161 43.5018 27.5843H55.0167V30H39.2341ZM61.3136 27.0206V30H58.3342V27.0206H61.3136ZM63.9065 30V27.5843C72.4419 21.7114 76.7097 17.0411 76.7097 13.5732C76.7097 10.6744 74.8845 9.22494 71.2341 9.22494C68.8721 9.22494 66.6443 9.81545 64.5506 10.9965V8.41971C66.6443 7.34606 68.8721 6.80924 71.2341 6.80924C76.8707 6.80924 79.6891 9.06389 79.6891 13.5732C79.6891 17.5457 75.8508 22.2161 68.1742 27.5843H79.6891V30H63.9065ZM97.4525 30H94.4732V24.5244H82.3624V22.1087L91.6226 6.97028H94.7469L85.4706 22.1087H94.4732V13.9275H97.4525V22.1087L99.836 23.3327V24.5244H97.4525V30Z" fill="black"/>
<g filter="url(#filter0_d_1040_3364)">
<path d="M14.46 329.858V201.593H58.2534C73.2787 201.593 85.6166 204.28 95.267 209.655C105.04 214.908 112.247 222.359 116.889 232.01C121.653 241.538 124.035 252.777 124.035 265.725C124.035 278.674 121.653 289.973 116.889 299.624C112.247 309.152 105.04 316.604 95.267 321.979C85.6166 327.231 73.2787 329.858 58.2534 329.858H14.46ZM37.9142 309.702H57.1539C67.9038 309.702 76.3937 307.992 82.6237 304.571C88.8537 301.029 93.3125 296.02 95.9999 289.546C98.6874 282.949 100.031 275.009 100.031 265.725C100.031 256.563 98.6874 248.684 95.9999 242.088C93.3125 235.491 88.8537 230.422 82.6237 226.879C76.3937 223.337 67.9038 221.565 57.1539 221.565H37.9142V309.702ZM113.593 329.858L160.502 201.593H186.888L233.796 329.858H208.876L198.615 300.173H148.591L138.147 329.858H113.593ZM155.005 281.85H192.202L173.511 228.528L155.005 281.85ZM253.973 329.858V284.232L210.913 201.593H237.482L265.884 260.778L294.102 201.593H320.305L277.428 284.232V329.858H253.973ZM313.558 331.14C309.282 331.14 305.74 329.797 302.93 327.109C300.243 324.422 298.899 321.185 298.899 317.398C298.899 313.489 300.243 310.19 302.93 307.503C305.74 304.815 309.282 303.472 313.558 303.472C317.833 303.472 321.315 304.815 324.002 307.503C326.812 310.19 328.217 313.489 328.217 317.398C328.217 321.185 326.812 324.422 324.002 327.109C321.315 329.797 317.833 331.14 313.558 331.14Z" fill="black"/>
</g>
<g filter="url(#filter1_d_1040_3364)">
<path d="M14.46 182.353V54.0878H98.1987V72.9611H37.9142V108.142H92.7017V126.466H37.9142V163.48H98.1987V182.353H14.46ZM163.82 184.552C150.871 184.552 139.755 181.803 130.471 176.306C121.187 170.687 114.041 162.93 109.033 153.035C104.024 143.018 101.52 131.474 101.52 118.404C101.52 105.333 104.024 93.7889 109.033 83.772C114.041 73.7551 121.187 65.937 130.471 60.3178C139.755 54.6986 150.871 51.889 163.82 51.889C179.212 51.889 191.794 55.7369 201.567 63.4328C211.461 71.0066 217.63 81.6953 220.073 95.4991H194.237C192.649 88.5361 189.229 83.1001 183.976 79.1911C178.845 75.1599 172.005 73.1443 163.454 73.1443C151.604 73.1443 142.32 77.1755 135.602 85.2379C128.883 93.3002 125.524 104.355 125.524 118.404C125.524 132.452 128.883 143.507 135.602 151.569C142.32 159.509 151.604 163.48 163.454 163.48C172.005 163.48 178.845 161.647 183.976 157.982C189.229 154.196 192.649 149.004 194.237 142.407H220.073C217.63 155.6 211.461 165.923 201.567 173.374C191.794 180.826 179.212 184.552 163.82 184.552ZM226.176 182.353V54.0878H309.915V72.9611H249.63V108.142H304.418V126.466H249.63V163.48H309.915V182.353H226.176Z" fill="black"/>
</g>
<path fill-rule="evenodd" clip-rule="evenodd" d="M315.333 32.4195H338.238V55.3242L356.561 73.6475H356.561V23.2577V14.0959H347.399H297.01V14.0961L315.333 32.4195Z" fill="black"/>
<defs>
<filter id="filter0_d_1040_3364" x="0.717285" y="192.431" width="350.404" height="166.195" filterUnits="userSpaceOnUse" color-interpolation-filters="sRGB">
<feFlood flood-opacity="0" result="BackgroundImageFix"/>
<feColorMatrix in="SourceAlpha" type="matrix" values="0 0 0 0 0 0 0 0 0 0 0 0 0 0 0 0 0 0 127 0" result="hardAlpha"/>
<feOffset dx="4.58089" dy="9.16178"/>
<feGaussianBlur stdDeviation="9.16178"/>
<feComposite in2="hardAlpha" operator="out"/>
<feColorMatrix type="matrix" values="0 0 0 0 0 0 0 0 0 0 0 0 0 0 0 0 0 0 0.35 0"/>
<feBlend mode="normal" in2="BackgroundImageFix" result="effect1_dropShadow_1040_3364"/>
<feBlend mode="normal" in="SourceGraphic" in2="effect1_dropShadow_1040_3364" result="shape"/>
</filter>
<filter id="filter1_d_1040_3364" x="0.717285" y="42.7271" width="332.102" height="169.31" filterUnits="userSpaceOnUse" color-interpolation-filters="sRGB">
<feFlood flood-opacity="0" result="BackgroundImageFix"/>
<feColorMatrix in="SourceAlpha" type="matrix" values="0 0 0 0 0 0 0 0 0 0 0 0 0 0 0 0 0 0 127 0" result="hardAlpha"/>
<feOffset dx="4.58089" dy="9.16178"/>
<feGaussianBlur stdDeviation="9.16178"/>
<feComposite in2="hardAlpha" operator="out"/>
<feColorMatrix type="matrix" values="0 0 0 0 0 0 0 0 0 0 0 0 0 0 0 0 0 0 0.35 0"/>
<feBlend mode="normal" in2="BackgroundImageFix" result="effect1_dropShadow_1040_3364"/>
<feBlend mode="normal" in="SourceGraphic" in2="effect1_dropShadow_1040_3364" result="shape"/>
</filter>
</defs>
</svg>
