<svg width="357" height="388" viewBox="0 0 357 388" fill="none" xmlns="http://www.w3.org/2000/svg">
<path d="M18.0564 30.9419H15.077V25.4663H2.96628V23.0506L12.2265 7.91218H15.3508L6.07449 23.0506H15.077V14.8694H18.0564V23.0506L20.4399 24.2746V25.4663H18.0564V30.9419ZM26.2376 27.9625V30.9419H23.2582V27.9625H26.2376ZM31.8903 30.9419V10.7949H29.4746V9.3616L34.8697 7.75113V30.9419H31.8903ZM54.3242 30.9419H51.3448V25.4663H39.2341V23.0506L48.4943 7.91218H51.6186L42.3423 23.0506H51.3448V14.8694H54.3242V23.0506L56.7077 24.2746V25.4663H54.3242V30.9419ZM62.5053 27.9625V30.9419H59.526V27.9625H62.5053ZM65.0982 30.9419V28.5262C73.6337 22.6533 77.9014 17.983 77.9014 14.5151C77.9014 11.6163 76.0762 10.1668 72.4258 10.1668C70.0638 10.1668 67.836 10.7573 65.7424 11.9384V9.3616C67.836 8.28796 70.0638 7.75113 72.4258 7.75113C78.0625 7.75113 80.8808 10.0058 80.8808 14.5151C80.8808 18.4876 77.0425 23.158 69.3659 28.5262H80.8808V30.9419H65.0982ZM84.1984 8.71741C86.3457 8.07323 88.493 7.75113 90.6402 7.75113C96.1695 7.75113 98.9342 9.84474 98.9342 14.032C98.9342 16.5658 97.9249 18.3104 95.9065 19.266C97.9249 20.1786 98.9342 21.9233 98.9342 24.5C98.9342 28.902 96.1695 31.1029 90.6402 31.1029C88.493 31.1029 86.3457 30.7808 84.1984 30.1367V27.5599C86.3457 28.3115 88.493 28.6872 90.6402 28.6872C94.1833 28.6872 95.9548 27.2915 95.9548 24.5C95.9548 21.8159 94.602 20.4738 91.8964 20.4738H86.6141V18.0581H91.8481C94.5859 18.0581 95.9548 16.7161 95.9548 14.032C95.9548 11.4552 94.1833 10.1668 90.6402 10.1668C88.493 10.1668 86.3457 10.5426 84.1984 11.2942V8.71741Z" fill="black"/>
<g filter="url(#filter0_d_382_11554)">
<path d="M14.46 330.8V202.535H58.2534C73.2787 202.535 85.6166 205.222 95.267 210.597C105.04 215.85 112.247 223.301 116.889 232.952C121.653 242.48 124.035 253.718 124.035 266.667C124.035 279.616 121.653 290.915 116.889 300.566C112.247 310.094 105.04 317.546 95.267 322.92C85.6166 328.173 73.2787 330.8 58.2534 330.8H14.46ZM37.9142 310.644H57.1539C67.9038 310.644 76.3937 308.933 82.6237 305.513C88.8537 301.97 93.3125 296.962 95.9999 290.488C98.6874 283.891 100.031 275.951 100.031 266.667C100.031 257.505 98.6874 249.626 95.9999 243.03C93.3125 236.433 88.8537 231.364 82.6237 227.821C76.3937 224.279 67.9038 222.507 57.1539 222.507H37.9142V310.644ZM113.593 330.8L160.502 202.535H186.888L233.796 330.8H208.876L198.615 301.115H148.591L138.147 330.8H113.593ZM155.005 282.792H192.202L173.511 229.47L155.005 282.792ZM253.973 330.8V285.174L210.913 202.535H237.482L265.884 261.72L294.102 202.535H320.305L277.428 285.174V330.8H253.973ZM313.558 332.082C309.282 332.082 305.74 330.738 302.93 328.051C300.243 325.364 298.899 322.126 298.899 318.34C298.899 314.431 300.243 311.132 302.93 308.445C305.74 305.757 309.282 304.414 313.558 304.414C317.833 304.414 321.315 305.757 324.002 308.445C326.812 311.132 328.217 314.431 328.217 318.34C328.217 322.126 326.812 325.364 324.002 328.051C321.315 330.738 317.833 332.082 313.558 332.082Z" fill="black"/>
</g>
<g filter="url(#filter1_d_382_11554)">
<path d="M14.46 183.295V55.0297H98.1987V73.903H37.9142V109.084H92.7017V127.408H37.9142V164.421H98.1987V183.295H14.46ZM163.82 185.494C150.871 185.494 139.755 182.745 130.471 177.248C121.187 171.629 114.041 163.872 109.033 153.977C104.024 143.96 101.52 132.416 101.52 119.345C101.52 106.275 104.024 94.7308 109.033 84.7139C114.041 74.697 121.187 66.8789 130.471 61.2597C139.755 55.6405 150.871 52.8309 163.82 52.8309C179.212 52.8309 191.794 56.6788 201.567 64.3747C211.461 71.9485 217.63 82.6372 220.073 96.441H194.237C192.649 89.478 189.229 84.042 183.976 80.133C178.845 76.1018 172.005 74.0862 163.454 74.0862C151.604 74.0862 142.32 78.1174 135.602 86.1798C128.883 94.2421 125.524 105.297 125.524 119.345C125.524 133.393 128.883 144.449 135.602 152.511C142.32 160.451 151.604 164.421 163.454 164.421C172.005 164.421 178.845 162.589 183.976 158.924C189.229 155.137 192.649 149.946 194.237 143.349H220.073C217.63 156.542 211.461 166.865 201.567 174.316C191.794 181.768 179.212 185.494 163.82 185.494ZM226.176 183.295V55.0297H309.915V73.903H249.63V109.084H304.418V127.408H249.63V164.421H309.915V183.295H226.176Z" fill="black"/>
</g>
<path fill-rule="evenodd" clip-rule="evenodd" d="M315.333 33.3614H338.238V56.2661L356.561 74.5894H356.561V24.1996V15.0378H347.399H297.01V15.038L315.333 33.3614Z" fill="black"/>
<defs>
<filter id="filter0_d_382_11554" x="0.717407" y="193.373" width="350.404" height="166.195" filterUnits="userSpaceOnUse" color-interpolation-filters="sRGB">
<feFlood flood-opacity="0" result="BackgroundImageFix"/>
<feColorMatrix in="SourceAlpha" type="matrix" values="0 0 0 0 0 0 0 0 0 0 0 0 0 0 0 0 0 0 127 0" result="hardAlpha"/>
<feOffset dx="4.58089" dy="9.16178"/>
<feGaussianBlur stdDeviation="9.16178"/>
<feComposite in2="hardAlpha" operator="out"/>
<feColorMatrix type="matrix" values="0 0 0 0 0 0 0 0 0 0 0 0 0 0 0 0 0 0 0.35 0"/>
<feBlend mode="normal" in2="BackgroundImageFix" result="effect1_dropShadow_382_11554"/>
<feBlend mode="normal" in="SourceGraphic" in2="effect1_dropShadow_382_11554" result="shape"/>
</filter>
<filter id="filter1_d_382_11554" x="0.717407" y="43.669" width="332.102" height="169.31" filterUnits="userSpaceOnUse" color-interpolation-filters="sRGB">
<feFlood flood-opacity="0" result="BackgroundImageFix"/>
<feColorMatrix in="SourceAlpha" type="matrix" values="0 0 0 0 0 0 0 0 0 0 0 0 0 0 0 0 0 0 127 0" result="hardAlpha"/>
<feOffset dx="4.58089" dy="9.16178"/>
<feGaussianBlur stdDeviation="9.16178"/>
<feComposite in2="hardAlpha" operator="out"/>
<feColorMatrix type="matrix" values="0 0 0 0 0 0 0 0 0 0 0 0 0 0 0 0 0 0 0.35 0"/>
<feBlend mode="normal" in2="BackgroundImageFix" result="effect1_dropShadow_382_11554"/>
<feBlend mode="normal" in="SourceGraphic" in2="effect1_dropShadow_382_11554" result="shape"/>
</filter>
</defs>
</svg>
